<svg width="174" height="26" viewBox="0 0 174 26" fill="none" xmlns="http://www.w3.org/2000/svg">
<path d="M46.0268 23V5.12H49.1468L55.8428 14.216H54.3548L60.9068 5.12H64.0268V23H60.7388V8.84L62.0108 9.152L55.2188 18.2H54.8348L48.2108 9.152L49.2908 8.84V23H46.0268ZM73.5686 23.288C72.2886 23.288 71.1206 22.992 70.0646 22.4C69.0246 21.808 68.1926 21 67.5686 19.976C66.9606 18.952 66.6566 17.784 66.6566 16.472C66.6566 15.16 66.9606 13.992 67.5686 12.968C68.1926 11.944 69.0246 11.136 70.0646 10.544C71.1046 9.952 72.2726 9.656 73.5686 9.656C74.8486 9.656 76.0086 9.952 77.0486 10.544C78.0886 11.136 78.9126 11.944 79.5206 12.968C80.1446 13.976 80.4566 15.144 80.4566 16.472C80.4566 17.784 80.1446 18.952 79.5206 19.976C78.8966 21 78.0646 21.808 77.0246 22.4C75.9846 22.992 74.8326 23.288 73.5686 23.288ZM73.5686 20.408C74.2726 20.408 74.8886 20.24 75.4166 19.904C75.9606 19.568 76.3846 19.104 76.6886 18.512C77.0086 17.904 77.1686 17.224 77.1686 16.472C77.1686 15.704 77.0086 15.032 76.6886 14.456C76.3846 13.864 75.9606 13.4 75.4166 13.064C74.8886 12.712 74.2726 12.536 73.5686 12.536C72.8486 12.536 72.2166 12.712 71.6726 13.064C71.1286 13.4 70.6966 13.864 70.3766 14.456C70.0726 15.032 69.9206 15.704 69.9206 16.472C69.9206 17.224 70.0726 17.904 70.3766 18.512C70.6966 19.104 71.1286 19.568 71.6726 19.904C72.2166 20.24 72.8486 20.408 73.5686 20.408ZM88.9129 23.288C87.6489 23.288 86.5209 22.992 85.5289 22.4C84.5369 21.792 83.7529 20.968 83.1769 19.928C82.6009 18.888 82.3129 17.736 82.3129 16.472C82.3129 15.192 82.6009 14.04 83.1769 13.016C83.7529 11.992 84.5369 11.176 85.5289 10.568C86.5369 9.96 87.6569 9.656 88.8889 9.656C89.8809 9.656 90.7609 9.856 91.5289 10.256C92.3129 10.64 92.9289 11.184 93.3769 11.888L92.8969 12.536V4.832H96.0409V23H93.0649V20.48L93.4009 21.104C92.9529 21.808 92.3289 22.352 91.5289 22.736C90.7289 23.104 89.8569 23.288 88.9129 23.288ZM89.2489 20.408C89.9689 20.408 90.6009 20.24 91.1449 19.904C91.6889 19.568 92.1129 19.104 92.4169 18.512C92.7369 17.92 92.8969 17.24 92.8969 16.472C92.8969 15.72 92.7369 15.048 92.4169 14.456C92.1129 13.848 91.6889 13.376 91.1449 13.04C90.6009 12.704 89.9689 12.536 89.2489 12.536C88.5449 12.536 87.9129 12.712 87.3529 13.064C86.7929 13.4 86.3529 13.864 86.0329 14.456C85.7289 15.032 85.5769 15.704 85.5769 16.472C85.5769 17.24 85.7289 17.92 86.0329 18.512C86.3529 19.104 86.7929 19.568 87.3529 19.904C87.9129 20.24 88.5449 20.408 89.2489 20.408ZM105.158 23.288C103.814 23.288 102.638 22.984 101.63 22.376C100.622 21.768 99.8379 20.944 99.2779 19.904C98.7179 18.864 98.4379 17.712 98.4379 16.448C98.4379 15.136 98.7179 13.976 99.2779 12.968C99.8539 11.944 100.63 11.136 101.606 10.544C102.598 9.952 103.702 9.656 104.918 9.656C105.942 9.656 106.838 9.824 107.606 10.16C108.39 10.496 109.054 10.96 109.598 11.552C110.142 12.144 110.558 12.824 110.846 13.592C111.134 14.344 111.278 15.16 111.278 16.04C111.278 16.264 111.262 16.496 111.23 16.736C111.214 16.976 111.174 17.184 111.11 17.36H101.03V14.96H109.334L107.846 16.088C107.99 15.352 107.95 14.696 107.726 14.12C107.518 13.544 107.166 13.088 106.67 12.752C106.19 12.416 105.606 12.248 104.918 12.248C104.262 12.248 103.678 12.416 103.166 12.752C102.654 13.072 102.262 13.552 101.99 14.192C101.734 14.816 101.638 15.576 101.702 16.472C101.638 17.272 101.742 17.984 102.014 18.608C102.302 19.216 102.662 19.648 103.086 20.016C103.51 20.384 103.966 20.592 104.454 20.72C105.574 21.104 106.366 21.344 107.182 21.464C107.998 21.6 108.82 21.688 109.646 21.688C110.902 21.688 112.062 21.424 113.14 20.888C114.226 20.352 114.966 19.576 115.366 18.672C115.778 17.76 115.986 16.68 115.986 15.392C115.986 14.32 115.876 13.44 115.654 12.72C115.436 12.016 115.08 11.408 114.596 10.888C114.064 10.336 113.442 9.952 112.746 9.76C112.046 9.552 111.274 9.408 110.446 9.408C108.91 9.408 107.486 9.824 106.174 10.552C104.88 11.264 103.74 12.016 102.754 12.808C101.774 13.592 101.006 14.392 100.454 15.208C99.892 16.032 99.654 16.84 99.734 17.528C99.818 18.056 100.178 18.456 100.742 18.64C101.354 18.832 101.998 19.04 102.62 19.28C103.96 19.72 105.086 20.44 106.062 21.44C107.034 22.44 107.562 23.288 108.746 23.288C109.254 23.288 109.74 23.08 110.206 22.72C110.674 22.384 111.042 21.92 111.306 21.376C111.574 20.84 111.746 20.208 111.746 19.528C111.746 18.856 111.574 18.2 111.306 17.664C111.042 17.12 110.674 16.64 110.206 16.288C109.74 15.92 109.254 15.712 108.746 15.712C107.602 15.712 106.58 15.968 105.758 16.472C104.926 16.976 104.402 17.784 104.178 18.592C103.96 19.408 103.672 20.032 103.278 20.384C102.888 20.752 102.398 20.992 101.742 21.088C101.082 21.184 100.498 21.208 100.014 21.2C99.692 21.176 99.368 21.128 99.062 21.048L99.058 19.856L100.048 20.064C100.396 20.088 100.746 20.128 101.106 20.168C101.466 20.224 101.836 20.328 102.206 20.408C102.784 20.528 103.288 20.544 103.732 20.512C104.236 20.48 104.704 20.376 105.106 20.144L105.158 23.288ZM75.3588 17.832L78.9188 13.192L74.6268 12.272L75.3588 17.832Z" fill="#00FF00"/>
<!-- <path d="M20.1369 26C22.8983 26 25.1842 23.7425 24.6732 21.0288C24.3528 19.3274 23.8679 17.6594 23.2235 16.0502C21.9602 12.8958 20.1087 10.0295 17.7745 7.61522C15.4403 5.2009 12.6692 3.28575 9.61949 1.97913C8.11383 1.33406 6.55481 0.843538 4.96489 0.512196C2.26154 -0.0511821 0 2.23858 0 5V21C0 23.7614 2.23858 26 5 26H20.1369Z" fill="#615DFF"/> -->
<g style="mix-blend-mode:multiply">
<!-- <path d="M13.7013 26C10.9399 26 8.65395 23.7425 9.16502 21.0288C9.48544 19.3274 9.97031 17.6594 10.6147 16.0502C11.878 12.8958 13.7295 10.0295 16.0637 7.61522C18.3979 5.2009 21.169 3.28575 24.2187 1.97913C25.7244 1.33406 27.2834 0.843538 28.8733 0.512196C31.5767 -0.0511821 33.8382 2.23858 33.8382 5V21C33.8382 23.7614 31.5996 26 28.8382 26H13.7013Z" fill="#3DD9EB"/> -->
</g>
</svg>
